<svg viewBox="0 0 800 500" xmlns="http://www.w3.org/2000/svg" font-family="Inter, Cantarell, sans-serif">
  <defs>
    <clipPath id="frame"><rect x="0" y="0" width="800" height="500" rx="10"/></clipPath>
    <linearGradient id="cpuBar" x1="0" x2="1" y1="0" y2="0"><stop offset="0%" stop-color="#3584e4"/><stop offset="100%" stop-color="#62a0ea"/></linearGradient>
    <linearGradient id="memBar" x1="0" x2="1" y1="0" y2="0"><stop offset="0%" stop-color="#e5a50a"/><stop offset="100%" stop-color="#f6d32d"/></linearGradient>
  </defs>
  <g clip-path="url(#frame)">
    <!-- Window background -->
    <rect width="800" height="500" fill="#1e1e1e" rx="10"/>

    <!-- Header bar -->
    <rect width="800" height="46" fill="#303030"/>
    <rect x="0" y="0" width="800" height="10" fill="#303030"/>
    <rect x="0" y="0" width="10" height="10" fill="#303030"/>
    <rect x="790" y="0" width="10" height="10" fill="#303030"/>
    <!-- Round top corners -->
    <rect x="0" y="0" width="800" height="46" rx="10" fill="#303030"/>
    <rect x="0" y="10" width="800" height="36" fill="#303030"/>

    <!-- Window controls -->
    <circle cx="24" cy="23" r="7" fill="#f66151"/>
    <circle cx="44" cy="23" r="7" fill="#f8e45c"/>
    <circle cx="64" cy="23" r="7" fill="#57e389"/>

    <!-- Title -->
    <text x="400" y="28" fill="#ffffff" font-size="13" font-weight="600" text-anchor="middle">Task Manager</text>

    <!-- Header buttons (right side) -->
    <!-- Restart DE button -->
    <rect x="686" y="10" width="28" height="28" rx="6" fill="#404040"/>
    <g transform="translate(694, 17)" fill="none" stroke="#c0c0c0" stroke-width="1.5" stroke-linecap="round">
      <path d="M7 1v3h3"/>
      <path d="M1 7a6 6 0 1 0 1.5-4L7 4"/>
    </g>
    <!-- Hamburger menu -->
    <rect x="720" y="10" width="28" height="28" rx="6" fill="#404040"/>
    <g transform="translate(728, 18)" stroke="#c0c0c0" stroke-width="1.8" stroke-linecap="round">
      <line x1="0" y1="1" x2="12" y2="1"/>
      <line x1="0" y1="6" x2="12" y2="6"/>
      <line x1="0" y1="11" x2="12" y2="11"/>
    </g>

    <!-- Sidebar -->
    <rect x="0" y="46" width="180" height="424" fill="#2b2b2b"/>
    <rect x="180" y="46" width="1" height="424" fill="#1a1a1a"/>

    <!-- Sidebar: Processes (selected) -->
    <rect x="6" y="52" width="168" height="40" rx="8" fill="#3584e4" opacity="0.2"/>
    <rect x="6" y="52" width="3" height="40" rx="1.5" fill="#3584e4"/>
    <!-- Process icon -->
    <g transform="translate(22, 62)" fill="#3584e4">
      <rect x="2" y="0" width="5" height="3" rx="0.5"/>
      <rect x="0" y="5" width="9" height="6" rx="1"/>
      <rect x="3" y="13" width="3" height="4" rx="0.5"/>
      <rect x="1" y="17" width="7" height="2" rx="0.5"/>
    </g>
    <text x="42" y="77" fill="#3584e4" font-size="13" font-weight="500">Processes</text>

    <!-- Sidebar: Performance -->
    <g transform="translate(22, 102)" fill="#a0a0a0">
      <rect x="0" y="2" width="4" height="14" rx="1"/>
      <rect x="5" y="6" width="4" height="10" rx="1"/>
      <rect x="10" y="0" width="4" height="16" rx="1"/>
    </g>
    <text x="42" y="117" fill="#c0c0c0" font-size="13">Performance</text>

    <!-- Process table header -->
    <rect x="181" y="46" width="619" height="32" fill="#2d2d2d"/>
    <text x="200" y="67" fill="#909090" font-size="11" font-weight="600">Name</text>
    <text x="370" y="67" fill="#909090" font-size="11" font-weight="600">PID</text>
    <text x="420" y="67" fill="#909090" font-size="11" font-weight="600">CPU %</text>
    <text x="486" y="67" fill="#909090" font-size="11" font-weight="600">Memory</text>
    <text x="556" y="67" fill="#909090" font-size="11" font-weight="600">Disk</text>
    <text x="616" y="67" fill="#909090" font-size="11" font-weight="600">Network</text>
    <text x="696" y="67" fill="#909090" font-size="11" font-weight="600">GPU %</text>
    <text x="751" y="67" fill="#909090" font-size="11" font-weight="600">Priority</text>

    <!-- Process rows -->
    <!-- Row 1 (selected/hovered) -->
    <rect x="181" y="78" width="619" height="30" fill="#353535"/>
    <circle cx="198" cy="93" r="5" fill="#3584e4"/>
    <text x="210" y="97" fill="#ffffff" font-size="12">Firefox</text>
    <text x="370" y="97" fill="#c0c0c0" font-size="12">3847</text>
    <rect x="420" y="88" width="40" height="10" rx="3" fill="#383838"/>
    <rect x="420" y="88" width="28" height="10" rx="3" fill="url(#cpuBar)"/>
    <text x="432" y="97" fill="#ffffff" font-size="9" font-weight="600">8.4</text>
    <text x="486" y="97" fill="#c0c0c0" font-size="12">1.2 GiB</text>
    <text x="556" y="97" fill="#c0c0c0" font-size="12">0 B/s</text>
    <text x="616" y="97" fill="#c0c0c0" font-size="12">42 KB/s</text>
    <text x="696" y="97" fill="#c0c0c0" font-size="12">3.1</text>
    <text x="751" y="97" fill="#c0c0c0" font-size="12">Normal</text>

    <!-- Row 2 -->
    <circle cx="198" cy="123" r="5" fill="#ff7800"/>
    <text x="210" y="127" fill="#ffffff" font-size="12">plasmashell</text>
    <text x="370" y="127" fill="#c0c0c0" font-size="12">3508</text>
    <rect x="420" y="118" width="40" height="10" rx="3" fill="#383838"/>
    <rect x="420" y="118" width="14" height="10" rx="3" fill="url(#cpuBar)"/>
    <text x="429" y="127" fill="#ffffff" font-size="9" font-weight="600">2.8</text>
    <text x="486" y="127" fill="#c0c0c0" font-size="12">638 MiB</text>
    <text x="556" y="127" fill="#c0c0c0" font-size="12">0 B/s</text>
    <text x="616" y="127" fill="#c0c0c0" font-size="12">1 KB/s</text>
    <text x="696" y="127" fill="#c0c0c0" font-size="12">0.0</text>
    <text x="751" y="127" fill="#c0c0c0" font-size="12">Normal</text>

    <!-- Row 3 -->
    <rect x="181" y="138" width="619" height="30" fill="#252525"/>
    <circle cx="198" cy="153" r="5" fill="#e5a50a"/>
    <text x="210" y="157" fill="#ffffff" font-size="12">kwin_wayland</text>
    <text x="370" y="157" fill="#c0c0c0" font-size="12">3242</text>
    <rect x="420" y="148" width="40" height="10" rx="3" fill="#383838"/>
    <rect x="420" y="148" width="35" height="10" rx="3" fill="url(#cpuBar)"/>
    <text x="432" y="157" fill="#ffffff" font-size="9" font-weight="600">12.1</text>
    <text x="486" y="157" fill="#c0c0c0" font-size="12">449 MiB</text>
    <text x="556" y="157" fill="#c0c0c0" font-size="12">0 B/s</text>
    <text x="616" y="157" fill="#c0c0c0" font-size="12">0 B/s</text>
    <text x="696" y="157" fill="#c0c0c0" font-size="12">5.7</text>
    <text x="751" y="157" fill="#c0c0c0" font-size="12">Normal</text>

    <!-- Row 4 -->
    <circle cx="198" cy="183" r="5" fill="#57e389"/>
    <text x="210" y="187" fill="#ffffff" font-size="12">Discord</text>
    <text x="370" y="187" fill="#c0c0c0" font-size="12">12451</text>
    <rect x="420" y="178" width="40" height="10" rx="3" fill="#383838"/>
    <rect x="420" y="178" width="8" height="10" rx="3" fill="url(#cpuBar)"/>
    <text x="428" y="187" fill="#ffffff" font-size="9" font-weight="600">1.2</text>
    <text x="486" y="187" fill="#c0c0c0" font-size="12">512 MiB</text>
    <text x="556" y="187" fill="#c0c0c0" font-size="12">0 B/s</text>
    <text x="616" y="187" fill="#c0c0c0" font-size="12">18 KB/s</text>
    <text x="696" y="187" fill="#c0c0c0" font-size="12">1.4</text>
    <text x="751" y="187" fill="#c0c0c0" font-size="12">Normal</text>

    <!-- Row 5 -->
    <rect x="181" y="198" width="619" height="30" fill="#252525"/>
    <circle cx="198" cy="213" r="5" fill="#c061cb"/>
    <text x="210" y="217" fill="#ffffff" font-size="12">code</text>
    <text x="370" y="217" fill="#c0c0c0" font-size="12">9214</text>
    <rect x="420" y="208" width="40" height="10" rx="3" fill="#383838"/>
    <rect x="420" y="208" width="20" height="10" rx="3" fill="url(#cpuBar)"/>
    <text x="430" y="217" fill="#ffffff" font-size="9" font-weight="600">4.5</text>
    <text x="486" y="217" fill="#c0c0c0" font-size="12">890 MiB</text>
    <text x="556" y="217" fill="#c0c0c0" font-size="12">128 KB/s</text>
    <text x="616" y="217" fill="#c0c0c0" font-size="12">2 KB/s</text>
    <text x="696" y="217" fill="#c0c0c0" font-size="12">0.0</text>
    <text x="751" y="217" fill="#c0c0c0" font-size="12">Normal</text>

    <!-- Row 6 -->
    <circle cx="198" cy="243" r="5" fill="#f66151"/>
    <text x="210" y="247" fill="#ffffff" font-size="12">Spotify</text>
    <text x="370" y="247" fill="#c0c0c0" font-size="12">18302</text>
    <rect x="420" y="238" width="40" height="10" rx="3" fill="#383838"/>
    <rect x="420" y="238" width="5" height="10" rx="3" fill="url(#cpuBar)"/>
    <text x="427" y="247" fill="#ffffff" font-size="9" font-weight="600">0.8</text>
    <text x="486" y="247" fill="#c0c0c0" font-size="12">347 MiB</text>
    <text x="556" y="247" fill="#c0c0c0" font-size="12">0 B/s</text>
    <text x="616" y="247" fill="#c0c0c0" font-size="12">256 KB/s</text>
    <text x="696" y="247" fill="#c0c0c0" font-size="12">0.0</text>
    <text x="751" y="247" fill="#c0c0c0" font-size="12">Normal</text>

    <!-- Row 7 -->
    <rect x="181" y="258" width="619" height="30" fill="#252525"/>
    <circle cx="198" cy="273" r="5" fill="#2ec27e"/>
    <text x="210" y="277" fill="#ffffff" font-size="12">Steam</text>
    <text x="370" y="277" fill="#c0c0c0" font-size="12">7621</text>
    <rect x="420" y="268" width="40" height="10" rx="3" fill="#383838"/>
    <rect x="420" y="268" width="3" height="10" rx="3" fill="url(#cpuBar)"/>
    <text x="426" y="277" fill="#ffffff" font-size="9" font-weight="600">0.2</text>
    <text x="486" y="277" fill="#c0c0c0" font-size="12">276 MiB</text>
    <text x="556" y="277" fill="#c0c0c0" font-size="12">0 B/s</text>
    <text x="616" y="277" fill="#c0c0c0" font-size="12">0 B/s</text>
    <text x="696" y="277" fill="#c0c0c0" font-size="12">0.0</text>
    <text x="751" y="277" fill="#c0c0c0" font-size="12">Normal</text>

    <!-- Row 8 -->
    <circle cx="198" cy="303" r="5" fill="#62a0ea"/>
    <text x="210" y="307" fill="#ffffff" font-size="12">Telegram</text>
    <text x="370" y="307" fill="#c0c0c0" font-size="12">21094</text>
    <rect x="420" y="298" width="40" height="10" rx="3" fill="#383838"/>
    <rect x="420" y="298" width="6" height="10" rx="3" fill="url(#cpuBar)"/>
    <text x="427" y="307" fill="#ffffff" font-size="9" font-weight="600">0.5</text>
    <text x="486" y="307" fill="#c0c0c0" font-size="12">198 MiB</text>
    <text x="556" y="307" fill="#c0c0c0" font-size="12">0 B/s</text>
    <text x="616" y="307" fill="#c0c0c0" font-size="12">4 KB/s</text>
    <text x="696" y="307" fill="#c0c0c0" font-size="12">0.0</text>
    <text x="751" y="307" fill="#c0c0c0" font-size="12">Normal</text>

    <!-- Row 9 -->
    <rect x="181" y="318" width="619" height="30" fill="#252525"/>
    <circle cx="198" cy="333" r="5" fill="#a0a0a0"/>
    <text x="210" y="337" fill="#ffffff" font-size="12">systemd</text>
    <text x="370" y="337" fill="#c0c0c0" font-size="12">1</text>
    <rect x="420" y="328" width="40" height="10" rx="3" fill="#383838"/>
    <rect x="420" y="328" width="2" height="10" rx="3" fill="url(#cpuBar)"/>
    <text x="426" y="337" fill="#ffffff" font-size="9" font-weight="600">0.0</text>
    <text x="486" y="337" fill="#c0c0c0" font-size="12">12 MiB</text>
    <text x="556" y="337" fill="#c0c0c0" font-size="12">0 B/s</text>
    <text x="616" y="337" fill="#c0c0c0" font-size="12">0 B/s</text>
    <text x="696" y="337" fill="#c0c0c0" font-size="12">0.0</text>
    <text x="751" y="337" fill="#c0c0c0" font-size="12">Normal</text>

    <!-- Row 10 -->
    <circle cx="198" cy="363" r="5" fill="#a0a0a0"/>
    <text x="210" y="367" fill="#ffffff" font-size="12">pipewire</text>
    <text x="370" y="367" fill="#c0c0c0" font-size="12">2198</text>
    <rect x="420" y="358" width="40" height="10" rx="3" fill="#383838"/>
    <rect x="420" y="358" width="4" height="10" rx="3" fill="url(#cpuBar)"/>
    <text x="427" y="367" fill="#ffffff" font-size="9" font-weight="600">0.3</text>
    <text x="486" y="367" fill="#c0c0c0" font-size="12">24 MiB</text>
    <text x="556" y="367" fill="#c0c0c0" font-size="12">0 B/s</text>
    <text x="616" y="367" fill="#c0c0c0" font-size="12">0 B/s</text>
    <text x="696" y="367" fill="#c0c0c0" font-size="12">0.0</text>
    <text x="751" y="367" fill="#c0c0c0" font-size="12">Normal</text>

    <!-- Row 11 -->
    <rect x="181" y="378" width="619" height="30" fill="#252525"/>
    <circle cx="198" cy="393" r="5" fill="#a0a0a0"/>
    <text x="210" y="397" fill="#ffffff" font-size="12">dbus-daemon</text>
    <text x="370" y="397" fill="#c0c0c0" font-size="12">2045</text>
    <rect x="420" y="388" width="40" height="10" rx="3" fill="#383838"/>
    <rect x="420" y="388" width="2" height="10" rx="3" fill="url(#cpuBar)"/>
    <text x="426" y="397" fill="#ffffff" font-size="9" font-weight="600">0.0</text>
    <text x="486" y="397" fill="#c0c0c0" font-size="12">6 MiB</text>
    <text x="556" y="397" fill="#c0c0c0" font-size="12">0 B/s</text>
    <text x="616" y="397" fill="#c0c0c0" font-size="12">0 B/s</text>
    <text x="696" y="397" fill="#c0c0c0" font-size="12">0.0</text>
    <text x="751" y="397" fill="#c0c0c0" font-size="12">Normal</text>

    <!-- Row 12 (partial) -->
    <circle cx="198" cy="423" r="5" fill="#a0a0a0"/>
    <text x="210" y="427" fill="#ffffff" font-size="12">NetworkManager</text>
    <text x="370" y="427" fill="#c0c0c0" font-size="12">891</text>
    <rect x="420" y="418" width="40" height="10" rx="3" fill="#383838"/>
    <rect x="420" y="418" width="2" height="10" rx="3" fill="url(#cpuBar)"/>
    <text x="426" y="427" fill="#ffffff" font-size="9" font-weight="600">0.0</text>
    <text x="486" y="427" fill="#c0c0c0" font-size="12">18 MiB</text>
    <text x="556" y="427" fill="#c0c0c0" font-size="12">0 B/s</text>
    <text x="616" y="427" fill="#c0c0c0" font-size="12">0 B/s</text>
    <text x="696" y="427" fill="#c0c0c0" font-size="12">0.0</text>
    <text x="751" y="427" fill="#c0c0c0" font-size="12">Normal</text>

    <!-- Separator above status bar -->
    <rect x="0" y="443" width="800" height="1" fill="#1a1a1a"/>

    <!-- Status bar -->
    <rect x="0" y="444" width="800" height="56" fill="#2b2b2b"/>
    <!-- Round bottom corners -->
    <rect x="0" y="444" width="800" height="56" rx="10" fill="#2b2b2b"/>
    <rect x="0" y="444" width="800" height="36" fill="#2b2b2b"/>

    <text x="20" y="477" fill="#a0a0a0" font-size="12">Processes: 247</text>
    <text x="150" y="477" fill="#a0a0a0" font-size="12">CPU: 14.2%</text>
    <text x="264" y="477" fill="#a0a0a0" font-size="12">Memory: 45.8%</text>
    <text x="400" y="477" fill="#a0a0a0" font-size="12">GPU: 8.4%</text>
  </g>
</svg>
